/* XPM */
static char *_620385591410[] = {
/* columns rows colors chars-per-pixel */
"65 65 110 2 ",
"   c #17179393D1D1",
".  c #18189393D1D1",
"X  c #19199494D1D1",
"o  c #1B1B9595D2D2",
"O  c #1E1E9696D2D2",
"+  c #1F1F9797D3D3",
"@  c #20209797D3D3",
"#  c #21219898D3D3",
"$  c #22229898D3D3",
"%  c #24249999D4D4",
"&  c #27279B9BD4D4",
"*  c #28289B9BD4D4",
"=  c #29299B9BD5D5",
"-  c #2A2A9C9CD5D5",
";  c #2C2C9D9DD5D5",
":  c #2F2F9E9ED6D6",
">  c #30309F9FD6D6",
",  c #31319F9FD6D6",
"<  c #3333A0A0D7D7",
"1  c #3433A09FD6D6",
"2  c #3737A2A2D7D7",
"3  c #3939A3A3D7D7",
"4  c #3939A3A3D8D8",
"5  c #3A3AA4A4D8D8",
"6  c #3B3BA4A4D8D8",
"7  c #3E3EA5A5D9D9",
"8  c #4242A7A7D9D9",
"9  c #4343A7A7DADA",
"0  c #4241A8A8DADA",
"q  c #4545A9A9DADA",
"w  c #4545A9A9DBDB",
"e  c #4949AAAADBDB",
"r  c #4C4CACACDBDB",
"t  c #4A4AABABDCDC",
"y  c #4B4BABABDCDC",
"u  c #4E4EACACDCDC",
"i  c #5050AEAEDDDD",
"p  c #5454AFAFDDDD",
"a  c #5555B0B0DDDD",
"s  c #5757B1B1DEDE",
"d  c #5959B2B2DEDE",
"f  c #5B5BB3B3DFDF",
"g  c #5D5CB3B2DFDF",
"h  c #5D5CB4B3DFDF",
"j  c #5F5FB4B4DFDF",
"k  c #6363B6B6DFDF",
"l  c #6363B6B6E0DF",
"z  c #6564B7B6E0DF",
"x  c #6767B8B7E1E1",
"c  c #6B6ABABAE2E2",
"v  c #6D6DBBBBE2E2",
"b  c #6F6EBCBBE2E2",
"n  c #7272BDBDE3E3",
"m  c #7373BEBEE3E3",
"M  c #7574BFBFE3E3",
"N  c #7B7BC1C1E4E4",
"B  c #7F7FC3C3E6E6",
"V  c #8484C6C6E7E7",
"C  c #8686C7C7E7E7",
"Z  c #8989C8C8E7E7",
"A  c #8585C7C7E8E8",
"S  c #8989C8C8E8E8",
"D  c #8C8CCACAE8E8",
"F  c #8F8FCBCBE9E9",
"G  c #9090CBCBE9E9",
"H  c #9090CCCCE8E8",
"J  c #9393CCCCEAEA",
"K  c #9494CDCDEAEA",
"L  c #9898CFCFEBEB",
"P  c #9B9BD1D1EBEB",
"I  c #9D9DD1D1EBEB",
"U  c #9B9BD1D1ECEC",
"Y  c #A2A2D3D3ECEC",
"T  c #A1A1D4D4ECEC",
"R  c #A6A6D5D5EEEE",
"E  c #A8A8D7D7EEEE",
"W  c #AAAAD8D8EFEF",
"Q  c #AEAEDADAEFEF",
"!  c #B2B2DBDBF0F0",
"~  c #B3B3DCDCF0F0",
"^  c #B6B6DDDDF0F0",
"/  c #B9B9DEDEF1F1",
"(  c #BEBEE1E1F2F2",
")  c #BEBEE1E1F3F3",
"_  c #C2C2E2E2F3F3",
"`  c #C2C2E3E3F3F3",
"'  c #C4C4E3E3F3F3",
"]  c #C5C5E4E4F3F3",
"[  c #C4C4E3E3F4F4",
"{  c #C7C7E5E5F4F4",
"}  c #C8C8E6E6F4F4",
"|  c #CCCCE7E7F5F5",
" . c #CDCDE8E8F6F6",
".. c #D1D1EAEAF5F5",
"X. c #D4D4EBEBF7F7",
"o. c #D6D6ECECF7F7",
"O. c #DCDCEEEEF8F8",
"+. c #DEDEF0F0F9F9",
"@. c #E1E1F2F2F9F9",
"#. c #E4E4F3F3FAFA",
"$. c #E6E6F4F4FAFA",
"%. c #EAEAF5F5FBFB",
"&. c #ECECF6F6FBFB",
"*. c #EDEDF7F7FBFB",
"=. c #EFEFF7F7FCFC",
"-. c #F0F0F8F8FCFC",
";. c #F1F1F9F9FCFC",
":. c #F7F7FBFBFDFD",
">. c #F9F9FCFCFEFE",
",. c white",
/* pixels */
",.,.,.,.,.,.,.,.,.,.,.,.,.,.,.,.,.,.,.,.,.,.,.,.,.,.,.,.,.,.,.,.' ,.,.,.,.,.,.,.,.,.,.,.,.,.,.,.,.,.,.,.,.,.,.,.,.,.,.,.,.,.,.,.,.",
",.,.,.,.,.,.,.,.,.,.,.,.,.,.,.,.,.,.,.,.,.,.,.,.,.,.,.,.,.,.,.) e ,.,.,.,.,.,.,.,.,.,.,.,.,.,.,.,.,.,.,.,.,.,.,.,.,.,.,.,.,.,.,.,.",
",.,.,.,.,.,.,.,.,.,.,.,.,.,.,.,.,.,.,.,.,.,.,.,.,.,.,.,.,.,.,.k O  .,.,.,.,.,.,.,.,.,.,.,.,.,.,.,.,.,.,.,.,.,.,.,.,.,.,.,.,.,.,.,.",
",.,.,.,.,.,.,.,.,.,.,.,.,.,.,.,.,.,.,.,.,.,.,.,.,.,.,.,.,.,.@.O   M ,.,.,.,.,.,.,.,.,.,.,.,.,.,.,.,.,.,.,.,.,.,.,.,.,.,.,.,.,.,.,.",
",.,.,.,.,.,.,.,.,.,.,.,.,.,.,.,.,.,.,.,.,.,.,.,.,.,.,.,.,.,.F   X 1 $.,.,.,.,.,.,.,.,.,.,.,.,.,.,.,.,.,.,.,.,.,.,.,.,.,.,.,.,.,.,.",
",.,.,.,.,.,.,.,.,.,.,.,.,.,.,.,.,.,.,.,.,.,.,.,.,.,.,.,.,.,.<     % K ,.,.,.,.,.,.,.,.,.,.,.,.,.,.,.,.,.,.,.,.,.,.,.,.,.,.,.,.,.,.",
",.,.,.,.,.,.,.,.,.,.,.,.,.,.,.,.,.,.,.,.,.,.,.,.,.,.,.,.,.^       X u >.,.,.,.,.,.,.,.,.,.,.,.,.,.,.,.,.,.,.,.,.,.,.,.,.,.,.,.,.,.",
",.,.,.,.,.,.,.,.,.,.,.,.,.,.,.,.,.,.,.,.,.,.,.,.,.,.,.,.,.d       X 1 ! ,.,.,.,.,.,.,.,.,.,.,.,.,.,.,.,.,.,.,.,.,.,.,.,.,.,.,.,.,.",
",.,.,.,.,.,.,.,.,.,.,.,.,.,.,.,.,.,.,.,.,.,.,.,.,.,.,.,.#.X   .     = l ,.,.,.,.,.,.,.,.,.,.,.,.,.,.,.,.,.,.,.,.,.,.,.,.,.,.,.,.,.",
",.,.,.,.,.,.,.,.,.,.,.,.,.,.,.,.,.,.,.,.,.,.,.,.,.,.,.,.A X   .     O 7 ..,.,.,.,.,.,.,.,.,.,.,.,.,.,.,.,.,.,.,.,.,.,.,.,.,.,.,.,.",
",.,.,.,.,.,.,.,.,.,.,.,.,.,.,.,.,.,.,.,.,.,.,.,.,.,.,.:.: . X .       1 N ,.,.,.,.,.,.,.,.,.,.,.,.,.,.,.,.,.,.,.,.,.,.,.,.,.,.,.,.",
",.,.,.,.,.,.,.,.,.,.,.,.,.,.,.,.,.,.,.,.,.,.,.,.,.,.,.T @ O X O X X   % 7 @.,.,.,.,.,.,.,.,.,.,.,.,.,.,.,.,.,.,.,.,.,.,.,.,.,.,.,.",
",.,.,.,.,.,.,.,.,.,.,.,.,.,.,.,.,.,.,.,.,.,.,.,.,.,.,.0 O @ O O O X X X 7 S ,.,.,.,.,.,.,.,.,.,.,.,.,.,.,.,.,.,.,.,.,.,.,.,.,.,.,.",
",.,.,.,.,.,.,.,.,.,.,.,.,.,.,.,.,.,.,.,.,.,.,.,.,.,.) % & O @ @ O X X X < q =.,.,.,.,.,.,.,.,.,.,.,.,.,.,.,.,.,.,.,.,.,.,.,.,.,.,.",
",.,.,.,.,.,.,.,.,.,.,.,.,.,.,.,.,.,.,.,.,.,.,.,.,.,.l % & & & @ $ $ O O + 7 U ,.,.,.,.,.,.,.,.,.,.,.,.,.,.,.,.,.,.,.,.,.,.,.,.,.,.",
",.,.,.,.,.,.,.,.,.,.,.,.,.,.,.,.,.,.,.,.,.,.,.,.,.O.- : & & & & % $ + + + 5 u >.,.,.,.,.,.,.,.,.,.,.,.,.,.,.,.,.,.,.,.,.,.,.,.,.,.",
",.,.,.,.,.,.,.,.,.,.,.,.,.,.,.,.,.,.,.,.,.,.,.,.,.N : : - - - & % $ $ $ O : 9 Q ,.,.,.,.,.,.,.,.,.,.,.,.,.,.,.,.,.,.,.,.,.,.,.,.,.",
",.,.,.,.,.,.,.,.,.,.,.,.,.,.,.,.,.,.,.,.,.,.,.,.;.6 , , : : * & - - $ $ $ $ 7 j ,.,.,.,.,.,.,.,.,.,.,.,.,.,.,.,.,.,.,.,.,.,.,.,.,.",
",.,.,.,.,.,.,.,.,.,.,.,.,.,.,.,.,.,.,.,.,.,.,.,.~ 1 < < : : : : : - = & & $ , q ) ,.,.,.,.,.,.,.,.,.,.,.,.,.,.,.,.,.,.,.,.,.,.,.,.",
",.,.,.,.,.,.,.,.,.,.,.,.,.,.,.,.,.,.,.,.,.,.,.,.,.J 1 1 < < : : : - - - = % & 0 k ,.,.,.,.,.,.,.,.,.,.,.,.,.,.,.,.,.,.,.,.,.,.,.,.",
",.,.,.,.,.,.,.,.,.,.,.,.,.,.,.,.,.,.,.,.,.,.,...>.,.F 3 1 1 1 < < : % : = % - 6 e _ ,.,.,.,.,.,.,.,.,.,.,.,.,.,.,.,.,.,.,.,.,.,.,.",
",.,.,.,.,.,.,.,.,.,.,.,.,.,.,.,.,.,.,.,.,.,.>.i k #.,.J 5 4 1 1 < : : < : - - - q k ,.,.,.,.,.,.,.,.,.,.,.,.,.,.,.,.,.,.,.,.,.,.,.",
",.,.,.,.,.,.,.,.,.,.,.,.,.,.,.,.,.,.,.,.,.,.R 9 9 0 P >.W 7 3 1 1 1 < > , : : - 5 u _ ,.,.,.,.,.,.,.,.,.,.,.,.,.,.,.,.,.,.,.,.,.,.",
",.,.,.,.,.,.,.,.,.,.,.,.,.,.,.,.,.,.,.,.,.>.a q 0 9 9 j _ _ q 3 6 1 < < : : : : : r k ,.,.,.,.,.,.,.,.,.,.,.,.,.,.,.,.,.,.,.,.,.,.",
",.,.,.,.,.,.,.,.,.,.,.,.,.,.,.,.,.,.,.,.,.E e e q q q 9 7 l W g 6 6 1 1 1 6 < : : 7 r _ ,.,.,.,.,.,.,.,.,.,.,.,.,.,.,.,.,.,.,.,.,.",
",.,.,.,.,.,.,.,.,.,.,.,.,.,.,.,.,.,.,.,.>.f u e e q q 9 9 9 9 p q 6 6 6 1 1 < < < : e c ,.,.,.,.,.,.,.,.,.,.,.,.,.,.,.,.,.,.,.,.,.",
",.,.,.,.,.,.,.,.,.,.,.,.,.,.,.,.,.,.,.,.E u u u u e e q q q q 0 7 7 7 6 6 1 < 1 < < 7 u _ ,.,.,.,.,.,.,.,.,.,.,.,.,.,.,.,.,.,.,.,.",
",.,.,.,.,.,.,.,.,.,.,.,.,.,.,.,.,.,.,.>.l a i i u u e e e q 9 q 0 0 7 7 7 6 6 6 1 4 < e c ,.,.,.,.,.,.,.,.,.,.,.,.,.,.,.,.,.,.,.,.",
",.,.,.,.,.,.,.,.,.,.,.,.,.,.,.,.,.,.,.W a a a i u u t t u t q q q 0 0 7 7 7 6 6 4 3 1 4 i [ ,.,.,.,.,.,.,.,.,.,.,.,.,.,.,.,.,.,.,.",
",.,.,.,.,.,.,.,.,.,.,.,.,.,.,.,.,.,.:.l a d a a a a u a u r q r q q q 7 8 7 7 7 4 4 4 4 e v ,.,.,.,.,.,.,.,.,.,.,.,.,.,.,.,.,.,.,.",
",.,.,.,.,.,.,.,.,.,.,.,.,.,.,.,.,.,.Y d d a d a a a u u i u r 0 6 < : : : > < < 5 7 3 3 3 p _ ,.,.,.,.,.,.,.,.,.,.,.,.,.,.,.,.,.,.",
",.,.,.,.,.,.,.,.,.,.,.,.,.,.,.,.,.;.j a a d a d a a a t < % X   X X     X X X X   O $ : 1 q c ,.,.,.,.,.,.,.,.,.,.,.,.,.,.,.,.,.,.",
",.,.,.,.,.,.,.,.,.,.,.,.,.,.,.,.,.U d a d a a a u 4 $                                     O 7 ) ,.,.,.,.,.,.,.,.,.,.,.,.,.,.,.,.,.",
",.,.,.,.,.,.,.,.,.,.,.,.,.,.,.,.=.j a d a a u :                                             X i >.,.,.,.,.,.,.,.,.,.,.,.,.,.,.,.,.",
",.,.,.,.,.,.,.,.,.,.,.,.,.,.,.,.J a d a e -                                                   $ W ,.,.,.,.,.,.,.,.,.,.,.,.,.,.,.,.",
",.,.,.,.,.,.,.,.,.,.,.,.,.,.,.&.j a u , X X                                                     0 >.,.,.,.,.,.,.,.,.,.,.,.,.,.,.,.",
",.,.,.,.,.,.,.,.,.,.,.,.,.,.,.F a 4                             . .                             X I ,.,.,.,.,.,.,.,.,.,.,.,.,.,.,.",
",.,.,.,.,.,.,.,.,.,.,.,.,.,.O.q O                       . . - c N r O                             , ;.,.,.,.,.,.,.,.,.,.,.,.,.,.,.",
",.,.,.,.,.,.,.,.,.,.,.,.,.,.l                           X G >.,.,.,.O.i                             Z ,.,.,.,.,.,.,.,.,.,.,.,.,.,.",
",.,.,.,.,.,.,.,.,.,.,.,.,.}                             ! ,.,.,.,.,.,.:.s                           & &.,.,.,.,.,.,.,.,.,.,.,.,.,.",
",.,.,.,.,.,.,.,.,.,.,.,.,.r                           V ,.,.,.,.,.,.,.,.;.1 .                         B ,.,.,.,.,.,.,.,.,.,.,.,.,.",
",.,.,.,.,.,.,.,.,.,.,.,.~                           , :.,.,.,.,.,.,.,.,.,.) . .                       O #.,.,.,.,.,.,.,.,.,.,.,.,.",
",.,.,.,.,.,.,.,.,.,.,.>.4                           U ,.,.,.,.,.,.,.,.,.,.,.q                           n ,.,.,.,.,.,.,.,.,.,.,.,.",
",.,.,.,.,.,.,.,.,.,.,.U                         . O ;.,.,.,.,.,.,.,.,.,.,.,.E                       . . X O.,.,.,.,.,.,.,.,.,.,.,.",
",.,.,.,.,.,.,.,.,.,.-.:                         . a ,.,.,.,.,.,.,.,.,.,.,.,.&.X                           k ,.,.,.,.,.,.,.,.,.,.,.",
",.,.,.,.,.,.,.,.,.,.S                           . S ,.,.,.,.,.,.,.,.,.,.,.,.,.9                             ..,.,.,.,.,.,.,.,.,.,.",
",.,.,.,.,.,.,.,.,.$.%                           . ^ ,.,.,.,.,.,.,.,.,.,.,.,.,.c               X 3 X     X   s ,.,.,.,.,.,.,.,.,.,.",
",.,.,.,.,.,.,.,.,.n                             . } ,.,.,.,.,.,.,.,.,.,.,.,.,.F                 & V R d X   . _ ,.,.,.,.,.,.,.,.,.",
",.,.,.,.,.,.,.,.X.X                               +.,.,.,.,.,.,.,.,.,.,.,.,.,.I                     , / &.F : e ,.,.,.,.,.,.,.,.,.",
",.,.,.,.,.,.,.,.j X                               +.,.,.,.,.,.,.,.,.,.,.,.,.,.R                     . . v ;.:.J { ,.,.,.,.,.,.,.,.",
",.,.,.,.,.,.,.{ X                               X ..,.,.,.,.,.,.,.,.,.,.,.,.,.P                           , ' ,.,.,.,.,.,.,.,.,.,.",
",.,.,.,.,.,.,.e                                   _ ,.,.,.,.,.,.,.,.,.,.,.,.,.F                         . . . K ,.,.,.,.,.,.,.,.,.",
",.,.,.,.,.,.!                                 X   U ,.,.,.,.,.,.,.,.,.,.,.,.,.c   .                             g ;.,.,.,.,.,.,.,.",
",.,.,.,.,.:.1                               X 7 n { ,.,.,.,.,.,.,.,.,.,.,.,.,.R d %                             . 0 O.,.,.,.,.,.,.",
",.,.,.,.,.L .                       X % x W &.,.,.,.,.,.,.,.,.,.,.,.,.,.,.,.,.,.,.,. .S q     X                 .   & -.,.,.,.,.,.",
",.,.,.,.;.=                     X k ~ >.,.,.,.,.,.,.,.,.,.,.,.,.,.,.,.,.,.,.,.,.,.,.,.,.,.O.S 1                       V ,.,.,.,.,.",
",.,.,.,.A                   : V @.,.,.,.,.,.,.,.,.,.,.,.,.,.,.,.,.,.,.,.,.,.,.,.,.,.,.,.,.,.,.,.} l X                 O @.,.,.,.,.",
",.,.,.#.O               9 ! >.,.,.,.,.,.,.,.,.,.,.,.,.,.,.,.,.,.,.,.,.,.,.,.,.,.,.,.,.,.,.,.,.,.,.,.#.N @     .         b ,.,.,.,.",
",.,.,.b             e / ,.,.,.,.,.,.,.,.,.,.,.,.,.,.,.,.,.,.,.,.,.,.,.,.,.,.,.,.,.,.,.,.,.,.,.,.,.,.,.,.&.S % X         X X.,.,.,.",
",.,.o.X       X u / ,.,.,.,.,.,.,.,.,.,.,.,.,.,.,.,.,.,.,.,.,.,.,.,.,.,.,.,.,.,.,.,.,.,.,.,.,.,.,.,.,.,.,.,.;.J &       X d ,.,.,.",
",.,.d       u } ,.,.,.,.,.,.,.,.,.,.,.,.,.,.,.,.,.,.,.,.,.,.,.,.,.,.,.,.,.,.,.,.,.,.,.,.,.,.,.,.,.,.,.,.,.,.,.,.;.F $       { ,.,.",
",.{     3 ! ,.,.,.,.,.,.,.,.,.,.,.,.,.,.,.,.,.,.,.,.,.,.,.,.,.,.,.,.,.,.,.,.,.,.,.,.,.,.,.,.,.,.,.,.,.,.,.,.,.,.,.,.&.V X X q ,.,.",
",.q = G >.,.,.,.,.,.,.,.,.,.,.,.,.,.,.,.,.,.,.,.,.,.,.,.,.,.,.,.,.,.,.,.,.,.,.,.,.,.,.,.,.,.,.,.,.,.,.,.,.,.,.,.,.,.,.,.O.k X ! ,.",
"! V ;.,.,.,.,.,.,.,.,.,.,.,.,.,.,.,.,.,.,.,.,.,.,.,.,.,.,.,.,.,.,.,.,.,.,.,.,.,.,.,.,.,.,.,.,.,.,.,.,.,.,.,.,.,.,.,.,.,.,.,.| b >.",
">.,.,.,.,.,.,.,.,.,.,.,.,.,.,.,.,.,.,.,.,.,.,.,.,.,.,.,.,.,.,.,.,.,.,.,.,.,.,.,.,.,.,.,.,.,.,.,.,.,.,.,.,.,.,.,.,.,.,.,.,.,.,.,.>."
};
